<svg width="143" height="18" viewBox="0 0 143 18" fill="none" xmlns="http://www.w3.org/2000/svg">
<path d="M138.182 7.67969C138.962 7.67969 139.658 7.84169 140.27 8.16569C140.894 8.48969 141.38 8.96969 141.728 9.60569C142.088 10.2417 142.268 11.0097 142.268 11.9097V17.7597H140.234V12.2157C140.234 11.3277 140.012 10.6497 139.568 10.1817C139.124 9.70169 138.518 9.46169 137.75 9.46169C136.982 9.46169 136.37 9.70169 135.914 10.1817C135.47 10.6497 135.248 11.3277 135.248 12.2157V17.7597H133.214V12.2157C133.214 11.3277 132.992 10.6497 132.548 10.1817C132.104 9.70169 131.498 9.46169 130.73 9.46169C129.962 9.46169 129.35 9.70169 128.894 10.1817C128.45 10.6497 128.228 11.3277 128.228 12.2157V17.7597H126.176V7.84169H128.228V8.97569C128.564 8.56769 128.99 8.24969 129.506 8.02169C130.022 7.79369 130.574 7.67969 131.162 7.67969C131.954 7.67969 132.662 7.84769 133.286 8.18369C133.91 8.51969 134.39 9.00569 134.726 9.64169C135.026 9.04169 135.494 8.56769 136.13 8.21969C136.766 7.85969 137.45 7.67969 138.182 7.67969Z" fill="#0B62E4"/>
<path d="M119.359 17.9217C118.423 17.9217 117.577 17.7117 116.821 17.2917C116.065 16.8597 115.471 16.2597 115.039 15.4917C114.607 14.7117 114.391 13.8117 114.391 12.7917C114.391 11.7837 114.613 10.8897 115.057 10.1097C115.501 9.32969 116.107 8.72969 116.875 8.30969C117.643 7.88969 118.501 7.67969 119.449 7.67969C120.397 7.67969 121.255 7.88969 122.023 8.30969C122.791 8.72969 123.397 9.32969 123.841 10.1097C124.285 10.8897 124.507 11.7837 124.507 12.7917C124.507 13.7997 124.279 14.6937 123.823 15.4737C123.367 16.2537 122.743 16.8597 121.951 17.2917C121.171 17.7117 120.307 17.9217 119.359 17.9217ZM119.359 16.1397C119.887 16.1397 120.379 16.0137 120.835 15.7617C121.303 15.5097 121.681 15.1317 121.969 14.6277C122.257 14.1237 122.401 13.5117 122.401 12.7917C122.401 12.0717 122.263 11.4657 121.987 10.9737C121.711 10.4697 121.345 10.0917 120.889 9.83969C120.433 9.58769 119.941 9.46169 119.413 9.46169C118.885 9.46169 118.393 9.58769 117.937 9.83969C117.493 10.0917 117.139 10.4697 116.875 10.9737C116.611 11.4657 116.479 12.0717 116.479 12.7917C116.479 13.8597 116.749 14.6877 117.289 15.2757C117.841 15.8517 118.531 16.1397 119.359 16.1397Z" fill="#0B62E4"/>
<path d="M103.941 12.7917C103.941 11.7717 104.145 10.8777 104.553 10.1097C104.973 9.32969 105.549 8.72969 106.281 8.30969C107.013 7.88969 107.853 7.67969 108.801 7.67969C110.001 7.67969 110.991 7.96769 111.771 8.54369C112.563 9.10769 113.097 9.91769 113.373 10.9737H111.159C110.979 10.4817 110.691 10.0977 110.295 9.82169C109.899 9.54569 109.401 9.40769 108.801 9.40769C107.961 9.40769 107.289 9.70769 106.785 10.3077C106.293 10.8957 106.047 11.7237 106.047 12.7917C106.047 13.8597 106.293 14.6937 106.785 15.2937C107.289 15.8937 107.961 16.1937 108.801 16.1937C109.989 16.1937 110.775 15.6717 111.159 14.6277H113.373C113.085 15.6357 112.545 16.4397 111.753 17.0397C110.961 17.6277 109.977 17.9217 108.801 17.9217C107.853 17.9217 107.013 17.7117 106.281 17.2917C105.549 16.8597 104.973 16.2597 104.553 15.4917C104.145 14.7117 103.941 13.8117 103.941 12.7917Z" fill="#0B62E4"/>
<path d="M101.47 17.8858C101.098 17.8858 100.786 17.7598 100.534 17.5078C100.282 17.2558 100.156 16.9438 100.156 16.5718C100.156 16.1998 100.282 15.8878 100.534 15.6358C100.786 15.3838 101.098 15.2578 101.47 15.2578C101.83 15.2578 102.136 15.3838 102.388 15.6358C102.64 15.8878 102.766 16.1998 102.766 16.5718C102.766 16.9438 102.64 17.2558 102.388 17.5078C102.136 17.7598 101.83 17.8858 101.47 17.8858Z" fill="#0B62E4"/>
<path d="M84.2969 11.064C84.2969 9.72005 84.5609 8.52805 85.0889 7.48805C85.6329 6.44805 86.3609 5.64805 87.2729 5.08805C88.2009 4.52805 89.2329 4.24805 90.3689 4.24805C91.3609 4.24805 92.2249 4.44805 92.9609 4.84805C93.7129 5.24805 94.3129 5.75205 94.7609 6.36005V4.46405H98.1449V17.76H94.7609V15.816C94.3289 16.44 93.7289 16.96 92.9609 17.376C92.2089 17.776 91.3369 17.976 90.3449 17.976C89.2249 17.976 88.2009 17.688 87.2729 17.112C86.3609 16.536 85.6329 15.728 85.0889 14.688C84.5609 13.632 84.2969 12.424 84.2969 11.064ZM94.7609 11.112C94.7609 10.296 94.6009 9.60005 94.2809 9.02405C93.9609 8.43205 93.5289 7.98405 92.9849 7.68005C92.4409 7.36005 91.8569 7.20005 91.2329 7.20005C90.6089 7.20005 90.0329 7.35205 89.5049 7.65605C88.9769 7.96005 88.5449 8.40805 88.2089 9.00005C87.8889 9.57605 87.7289 10.264 87.7289 11.064C87.7289 11.864 87.8889 12.568 88.2089 13.176C88.5449 13.768 88.9769 14.224 89.5049 14.544C90.0489 14.864 90.6249 15.024 91.2329 15.024C91.8569 15.024 92.4409 14.872 92.9849 14.568C93.5289 14.248 93.9609 13.8 94.2809 13.224C94.6009 12.632 94.7609 11.928 94.7609 11.112Z" fill="#0B62E4"/>
<path d="M77.1414 4.27246C78.7254 4.27246 80.0054 4.77646 80.9814 5.78446C81.9574 6.77646 82.4454 8.16846 82.4454 9.96046V17.7605H79.0854V10.4165C79.0854 9.36046 78.8214 8.55246 78.2934 7.99246C77.7654 7.41646 77.0454 7.12846 76.1334 7.12846C75.2054 7.12846 74.4694 7.41646 73.9254 7.99246C73.3974 8.55246 73.1334 9.36046 73.1334 10.4165V17.7605H69.7734V4.46446H73.1334V6.12046C73.5814 5.54446 74.1494 5.09646 74.8374 4.77646C75.5414 4.44046 76.3094 4.27246 77.1414 4.27246Z" fill="#0B62E4"/>
<path d="M53.125 11.064C53.125 9.72005 53.389 8.52805 53.917 7.48805C54.461 6.44805 55.189 5.64805 56.101 5.08805C57.029 4.52805 58.061 4.24805 59.197 4.24805C60.189 4.24805 61.053 4.44805 61.789 4.84805C62.541 5.24805 63.141 5.75205 63.589 6.36005V4.46405H66.973V17.76H63.589V15.816C63.157 16.44 62.557 16.96 61.789 17.376C61.037 17.776 60.165 17.976 59.173 17.976C58.053 17.976 57.029 17.688 56.101 17.112C55.189 16.536 54.461 15.728 53.917 14.688C53.389 13.632 53.125 12.424 53.125 11.064ZM63.589 11.112C63.589 10.296 63.429 9.60005 63.109 9.02405C62.789 8.43205 62.357 7.98405 61.813 7.68005C61.269 7.36005 60.685 7.20005 60.061 7.20005C59.437 7.20005 58.861 7.35205 58.333 7.65605C57.805 7.96005 57.373 8.40805 57.037 9.00005C56.717 9.57605 56.557 10.264 56.557 11.064C56.557 11.864 56.717 12.568 57.037 13.176C57.373 13.768 57.805 14.224 58.333 14.544C58.877 14.864 59.453 15.024 60.061 15.024C60.685 15.024 61.269 14.872 61.813 14.568C62.357 14.248 62.789 13.8 63.109 13.224C63.429 12.632 63.589 11.928 63.589 11.112Z" fill="#0B62E4"/>
<path d="M48.3251 17.76L43.8131 12.096V17.76H40.4531V0H43.8131V10.104L48.2771 4.464H52.6451L46.7891 11.136L52.6931 17.76H48.3251Z" fill="#0B62E4"/>
<path d="M23.8047 11.064C23.8047 9.72005 24.0687 8.52805 24.5967 7.48805C25.1407 6.44805 25.8687 5.64805 26.7807 5.08805C27.7087 4.52805 28.7407 4.24805 29.8767 4.24805C30.8687 4.24805 31.7327 4.44805 32.4687 4.84805C33.2207 5.24805 33.8207 5.75205 34.2687 6.36005V4.46405H37.6527V17.76H34.2687V15.816C33.8367 16.44 33.2367 16.96 32.4687 17.376C31.7167 17.776 30.8447 17.976 29.8527 17.976C28.7327 17.976 27.7087 17.688 26.7807 17.112C25.8687 16.536 25.1407 15.728 24.5967 14.688C24.0687 13.632 23.8047 12.424 23.8047 11.064ZM34.2687 11.112C34.2687 10.296 34.1087 9.60005 33.7887 9.02405C33.4687 8.43205 33.0367 7.98405 32.4927 7.68005C31.9487 7.36005 31.3647 7.20005 30.7407 7.20005C30.1167 7.20005 29.5407 7.35205 29.0127 7.65605C28.4847 7.96005 28.0527 8.40805 27.7167 9.00005C27.3967 9.57605 27.2367 10.264 27.2367 11.064C27.2367 11.864 27.3967 12.568 27.7167 13.176C28.0527 13.768 28.4847 14.224 29.0127 14.544C29.5567 14.864 30.1327 15.024 30.7407 15.024C31.3647 15.024 31.9487 14.872 32.4927 14.568C33.0367 14.248 33.4687 13.8 33.7887 13.224C34.1087 12.632 34.2687 11.928 34.2687 11.112Z" fill="#0B62E4"/>
<path d="M16.512 4.27246C18.144 4.27246 19.456 4.77646 20.448 5.78446C21.456 6.77646 21.96 8.16846 21.96 9.96046V17.7605H18.6V10.4165C18.6 9.37646 18.336 8.58446 17.808 8.04046C17.28 7.48046 16.56 7.20046 15.648 7.20046C14.736 7.20046 14.008 7.48046 13.464 8.04046C12.936 8.58446 12.672 9.37646 12.672 10.4165V17.7605H9.312V10.4165C9.312 9.37646 9.048 8.58446 8.52 8.04046C7.992 7.48046 7.272 7.20046 6.36 7.20046C5.432 7.20046 4.696 7.48046 4.152 8.04046C3.624 8.58446 3.36 9.37646 3.36 10.4165V17.7605H0V4.46446H3.36V6.07246C3.792 5.51246 4.344 5.07246 5.016 4.75246C5.704 4.43246 6.456 4.27246 7.272 4.27246C8.312 4.27246 9.24 4.49646 10.056 4.94446C10.872 5.37646 11.504 6.00046 11.952 6.81646C12.384 6.04846 13.008 5.43246 13.824 4.96846C14.656 4.50446 15.552 4.27246 16.512 4.27246Z" fill="#0B62E4"/>
</svg>
